# xmcd CD database file
#
# Track frame offsets:
#	150
#	12510
#	18232
#	31167
#	41185
#	52372
#	64170
#	74127
#	83380
#	100577
#	109020
#	125230
#	142205
#	155325
#	166142
#	175977
#	196022
#	213692
#	229785
#	242757
#	267572
#
# Disc length: 3710 seconds
#
# Revision: 4
# Processed by: cddbd v1.5.1PL0 Copyright (c) Steve Scherf et al.
# Submitted via: CDex 1.50
#
DISCID=340e7c15
DTITLE=Nitty Gritty Dirt Band - Will The Circle Be Unbroken [CD2]
DYEAR=1972
DGENRE=Bluegrass
TTITLE0=Lonesome Fiddle Blues
TTITLE1=Cannonball Rag
TTITLE2=Avalanche
TTITLE3=Flint Hill Special
TTITLE4=Togary Mountain
TTITLE5=Earl's Breakdown
TTITLE6=Orange Blossom Special
TTITLE7=Wabash Cannonball
TTITLE8=Lost Highway
TTITLE9=Doc Watson and Merle Travis
TTITLE10=Way Downtown
TTITLE11=Down Yonder
TTITLE12=Pins And Needles In My Heart
TTITLE13=Honky Tonk Blues
TTITLE14=Sailin' On To Hawaii
TTITLE15=I'm Thinknig Tonight Of My Blue Eyes
TTITLE16=I Am A Pilgrim
TTITLE17=Wildwood Flower
TTITLE18=Soldiers Joy
TTITLE19=Will The Circle Be Unbroken
TTITLE20=Both Sides Now
EXTD=YEAR: 1972
EXTT0=
EXTT1=
EXTT2=
EXTT3=
EXTT4=
EXTT5=
EXTT6=
EXTT7=
EXTT8=
EXTT9=
EXTT10=
EXTT11=
EXTT12=
EXTT13=
EXTT14=
EXTT15=
EXTT16=
EXTT17=
EXTT18=
EXTT19=
EXTT20=
PLAYORDER=
